<svg xmlns="http://www.w3.org/2000/svg" viewBox="0 0 19.96 19.96"><defs><style>.cls-1{fill:#212121;}.cls-2{isolation:isolate;}.cls-3,.cls-4{fill:#fff;}.cls-3{fill-rule:evenodd;}</style></defs><g id="Layer_2" data-name="Layer 2"><g id="Capa_1" data-name="Capa 1"><rect class="cls-1" width="19.96" height="19.96" rx="1.02"/><g class="cls-2"><path class="cls-3" d="M10,1.89A8.29,8.29,0,0,0,7.36,18.05c.41.08.56-.18.56-.4s0-.85,0-1.54c-2.3.5-2.79-1-2.79-1a2.18,2.18,0,0,0-.92-1.21c-.75-.52.06-.51.06-.51a1.75,1.75,0,0,1,1.27.86A1.77,1.77,0,0,0,7.94,15a1.71,1.71,0,0,1,.53-1.11c-1.84-.21-3.78-.92-3.78-4.1a3.2,3.2,0,0,1,.85-2.22,3,3,0,0,1,.08-2.2s.7-.22,2.28.85A8.48,8.48,0,0,1,10,5.9a8.54,8.54,0,0,1,2.08.28c1.58-1.07,2.27-.85,2.27-.85a3,3,0,0,1,.08,2.2,3.16,3.16,0,0,1,.86,2.22c0,3.18-1.94,3.89-3.79,4.09A2,2,0,0,1,12,15.38c0,1.1,0,2,0,2.27s.15.48.57.4A8.29,8.29,0,0,0,10,1.89Z"/><path class="cls-4" d="M4.83,13.8s-.08,0-.14,0-.1-.08-.08-.12.09-.06.15,0,.09.08.07.13Z"/><path class="cls-4" d="M5.16,14.17s-.11,0-.16,0S4.93,14,5,14s.12,0,.17,0,.07.13,0,.17Z"/><path class="cls-4" d="M5.49,14.65a.15.15,0,0,1-.18-.07c0-.08,0-.17,0-.2s.13,0,.18.07a.15.15,0,0,1,0,.2Z"/><path class="cls-4" d="M5.94,15.11a.15.15,0,0,1-.21,0c-.08-.07-.1-.16-.05-.21s.14,0,.21,0a.15.15,0,0,1,.05.21Z"/><path class="cls-4" d="M6.56,15.38c0,.06-.12.09-.21.06s-.16-.1-.14-.17.12-.09.21-.06.16.1.14.17Z"/><path class="cls-4" d="M7.24,15.43c0,.06-.08.12-.18.12s-.18-.05-.18-.12.08-.12.18-.12.18,0,.18.12Z"/><path class="cls-4" d="M7.87,15.32c0,.07-.06.13-.16.15a.16.16,0,0,1-.2-.09c0-.07.06-.13.16-.15a.16.16,0,0,1,.2.09Z"/></g></g></g></svg>