<svg xmlns="http://www.w3.org/2000/svg" viewBox="0 0 19.96 19.96"><defs><style>.cls-1{fill:#fff;isolation:isolate;}.cls-2{fill:#0077b7;}</style></defs><g id="Layer_2" data-name="Layer 2"><g id="Capa_1" data-name="Capa 1"><rect class="cls-1" width="19.96" height="19.96" rx="1.41"/><path class="cls-2" d="M18.9,0H1.06A1.05,1.05,0,0,0,0,1.06V18.9A1.06,1.06,0,0,0,1.06,20H18.9A1.07,1.07,0,0,0,20,18.9V1.06A1.06,1.06,0,0,0,18.9,0ZM6.18,7.33V17.76H2.89V7.33ZM4.53,6.45A2.13,2.13,0,1,1,6.66,4.32,2.12,2.12,0,0,1,4.53,6.45ZM17.86,17.27a.48.48,0,0,1-.48.49H14.5V12.88c0-.66.19-2.88-1.72-2.88-1.48,0-1.78,1.52-1.84,2.2v5.56H7.66V7.33h2.8a.48.48,0,0,1,.48.49v.81A3.31,3.31,0,0,1,14,7.18c3.84,0,3.82,3.59,3.82,5.56v4.53Z"/></g></g></svg>